<svg width="73" height="72" viewBox="0 0 73 72" fill="none" xmlns="http://www.w3.org/2000/svg">
<g clip-path="url(#clip0_66062_31241)">
<path d="M72.5 36C72.5 38.9449 72.1459 41.8072 71.4731 44.5515C70.5289 48.4407 68.9531 52.082 66.858 55.3574C66.3092 56.2131 65.7249 57.0452 65.1112 57.8479C58.5367 66.4525 48.1675 72 36.5 72C24.8325 72 14.4633 66.4525 7.88885 57.8479C7.27508 57.0452 6.69082 56.2131 6.14197 55.3574C4.04689 52.082 2.47115 48.4407 1.52689 44.5515C0.854098 41.8072 0.5 38.9449 0.5 36C0.5 34.2059 0.629836 32.4472 0.883607 30.7239C3.43902 13.3436 18.4115 0 36.5 0C54.5885 0 69.4902 13.2787 72.0987 30.6C72.3643 32.3646 72.5 34.1646 72.5 36Z" fill="#111441"/>
<path d="M72.5 35.9999C72.5 38.9448 72.1459 41.8071 71.4731 44.5514C70.5289 48.4405 68.9531 52.0819 66.858 55.3573H6.14197C4.04689 52.0819 2.47115 48.4405 1.52689 44.5514C0.854098 41.8071 0.5 38.9448 0.5 35.9999C0.5 34.2058 0.629836 32.4471 0.883607 30.7238L6.2541 27.413L10.1964 29.5258L21.3623 23.1402L25.1925 25.0819L36.5 18.6963L47.5774 25.0819L50.9944 23.1402L62.5734 29.5258L66.2679 27.413L72.0987 30.5999C72.3643 32.3645 72.5 34.1645 72.5 35.9999Z" fill="white"/>
<path d="M71.4731 44.5513C70.5288 48.4404 68.9531 52.0818 66.858 55.3572C66.3091 56.2129 65.7249 57.045 65.1111 57.8477H7.88882C7.27505 57.045 6.69079 56.2129 6.14194 55.3572C4.04686 52.0818 2.47112 48.4404 1.52686 44.5513H21.2796L36.5 53.1736L51.7734 44.5513H71.4731Z" fill="#E75125"/>
<path d="M33.5197 66.972L29.4948 66.9484L30.3682 63.0238C30.4096 62.8526 30.3682 62.6697 30.2561 62.5281L27.7656 59.3707L31.3833 57.6061C31.5427 57.5294 31.6607 57.3818 31.6961 57.2107L32.6168 53.292L36.2522 55.0153C36.4115 55.092 36.6004 55.092 36.7597 55.0153L40.3951 53.292L41.3099 57.2107C41.3512 57.3818 41.4633 57.5294 41.6227 57.6061L45.2404 59.3707L42.7499 62.5281C42.6378 62.6697 42.5964 62.8467 42.6378 63.0238L43.5112 66.9543L39.4863 66.9779C39.3092 66.9779 39.144 67.0605 39.0319 67.1963L36.506 70.33L33.9801 67.1963C33.8679 67.0605 33.7027 66.9779 33.5256 66.9779L33.5197 66.972Z" fill="white"/>
<path d="M36.5001 68.447L34.5407 66.0155C34.4286 65.8798 34.2634 65.7972 34.0863 65.7972L30.9644 65.7794L31.643 62.7342C31.6844 62.5631 31.643 62.3801 31.5309 62.2385L29.6011 59.7893L32.4044 58.4201C32.5637 58.3434 32.6817 58.1958 32.7171 58.0247L33.4312 54.9854L36.2522 56.325C36.4116 56.4017 36.6004 56.4017 36.7598 56.325L39.5807 54.9854L40.2948 58.0247C40.3362 58.1958 40.4483 58.3434 40.6076 58.4201L43.4109 59.7893L41.4811 62.2385C41.3689 62.3801 41.3276 62.5572 41.3689 62.7342L42.0476 65.7794L38.9257 65.7972C38.7486 65.7972 38.5834 65.8798 38.4712 66.0155L36.5119 68.447H36.5001Z" fill="#111441"/>
<path d="M18.2699 29.7734H22.1295L20.5302 37.6226C20.3767 38.378 20.9492 39.0803 21.7223 39.0803H22.2299C23.0797 39.0803 23.8115 38.4843 23.9826 37.6521L25.6292 29.7734H27.1754L25.5053 37.5282C25.1394 39.222 23.6403 40.4377 21.9053 40.4377H19.2318C17.6266 40.4377 16.4226 38.9682 16.7413 37.3984L18.2699 29.7734Z" fill="#111441"/>
<path d="M28.2554 29.7734H37.1138L36.7833 30.9951H34.1158L32.1446 40.3315H28.5623L30.6574 30.9951H28.0076L28.2554 29.7734Z" fill="#111441"/>
<path d="M43.2277 29.7734H39.3268L34.3694 40.3256H35.9923L37.1195 37.7407H40.3714L40.5366 40.3256H44.355L43.2277 29.7734ZM37.6448 36.5544L39.7576 31.839L40.2179 36.5544H37.6507H37.6448Z" fill="#111441"/>
<path d="M47.4179 29.7734H51.0711L50.0147 34.4298H52.1156L53.1425 29.7734H56.7484L54.435 40.3315H50.8468L51.8501 35.6751H49.7668L48.8225 40.3315H45.2402L47.4179 29.7734Z" fill="#111441"/>
<path d="M9.57666 17.6637L10.0842 16.9673C10.6331 16.2178 11.3649 16.0053 12.2088 16.6309C13.0527 17.2506 13.094 18.0237 12.5629 18.7437L12.0317 19.4696L9.57666 17.6637ZM12.0672 18.4781C12.374 18.0591 12.374 17.6283 11.7898 17.1974C11.1996 16.7666 10.8101 16.9142 10.5091 17.3273L10.4324 17.4335L11.9963 18.5784L12.0731 18.4722L12.0672 18.4781Z" fill="white"/>
<path d="M11.3767 15.2794L12.6338 13.8394L13.0705 14.223L12.2679 15.1436L12.7282 15.5449L13.4128 14.76L13.8495 15.1377L13.1649 15.9226L13.6961 16.383L14.5341 15.4269L14.9708 15.8105L13.6843 17.2859L11.3885 15.2794H11.3767Z" fill="white"/>
<path d="M13.0823 13.3674L13.8318 12.6415C14.3158 12.1753 14.8705 11.9687 15.384 12.4998C15.8797 13.0133 15.7085 13.6212 15.2482 14.0697L14.9767 14.3293L15.6967 15.073L15.201 15.551L13.0764 13.3674H13.0823ZM14.841 13.7038C15.1125 13.4382 15.1243 13.1962 14.9059 12.9661C14.6817 12.7359 14.4574 12.7949 14.1918 13.0546L13.9617 13.273L14.599 13.9339L14.841 13.6979V13.7038Z" fill="white"/>
<path d="M15.3663 11.2367L15.9977 10.7114L18.683 12.4406L18.1223 12.9068L16.8299 11.9744C16.5702 11.7973 16.2751 11.5672 16.0095 11.3783L15.9977 11.3901C16.1453 11.6852 16.3105 12.0098 16.4404 12.299L17.119 13.739L16.5761 14.1875L15.3604 11.2367H15.3663ZM16.2574 12.8124L17.3846 11.874L17.7269 12.2872L16.5997 13.2255L16.2574 12.8124Z" fill="white"/>
<path d="M16.9891 9.91496L17.8861 9.28348C18.4173 8.91168 18.9779 8.79365 19.3911 9.38971C19.7924 9.96217 19.5327 10.511 19.0016 10.8828L18.6652 11.1189L19.2907 12.0159L18.7242 12.4114L16.9773 9.91496H16.9891ZM18.6475 10.4697C18.9425 10.2632 19.0134 10.0212 18.8422 9.77922C18.6711 9.53135 18.4527 9.56086 18.1576 9.76742L17.8684 9.96807L18.3583 10.6704L18.6475 10.4697ZM18.8009 10.8061L18.9366 10.1746L20.7189 11.0245L20.0875 11.4671L18.8009 10.8061Z" fill="white"/>
<path d="M20.1052 8.5335L19.3793 8.95842L19.0842 8.45678L21.1321 7.26465L21.4213 7.76629L20.6954 8.19121L21.9406 10.3276L21.3446 10.6758L20.0993 8.5394L20.1052 8.5335Z" fill="white"/>
<path d="M21.5925 7.01728L22.2771 6.7045L23.2922 7.72548C23.422 7.86122 23.5519 8.02056 23.6876 8.1622H23.7053C23.6817 7.96155 23.6463 7.76089 23.6286 7.57204L23.4929 6.14384L24.1774 5.83105L25.4581 8.59302L24.8915 8.8586L24.4194 7.84351C24.2955 7.57204 24.1597 7.14712 24.0653 6.86974H24.0476L24.1243 7.63696L24.2247 8.8763L23.8765 9.03565L22.9971 8.1563L22.4778 7.60745H22.4601C22.6135 7.86712 22.8496 8.24483 22.9735 8.5163L23.4397 9.53138L22.8791 9.79105L21.6043 7.02909L21.5925 7.01728Z" fill="white"/>
<path d="M24.8914 5.56507L26.6914 4.93359L26.8803 5.47654L25.7294 5.87786L25.9301 6.45622L26.9098 6.11392L27.0986 6.65687L26.1189 6.99917L26.3491 7.66015L27.5471 7.24114L27.736 7.78409L25.8888 8.42736L24.8855 5.55327L24.8914 5.56507Z" fill="white"/>
<path d="M27.3584 4.72733L28.043 4.55618L29.1879 5.83094L29.6424 6.40339H29.6601C29.5479 6.09651 29.3886 5.6952 29.3001 5.347L29.0345 4.30241L29.6719 4.14307L30.4155 7.09979L29.7309 7.27093L28.586 5.99028L28.1316 5.41782H28.1139C28.226 5.74241 28.3794 6.12012 28.4679 6.46831L28.7335 7.5188L28.0961 7.67815L27.3525 4.72143L27.3584 4.72733Z" fill="white"/>
<path d="M31.0881 4.47947L30.2619 4.6093L30.1675 4.03684L32.5045 3.66504L32.5931 4.2375L31.7668 4.36733L32.1563 6.80471L31.4776 6.91094L31.0881 4.47356V4.47947Z" fill="white"/>
<path d="M33.7381 5.04595C33.6968 4.05448 34.2279 3.45841 35.0483 3.423C35.8686 3.38759 36.4587 3.93644 36.5001 4.92792C36.5414 5.91939 36.0102 6.54497 35.1899 6.58038C34.3696 6.61579 33.7794 6.04333 33.7381 5.05185V5.04595ZM35.7978 4.95743C35.7742 4.34956 35.4909 4.00136 35.0778 4.01907C34.6646 4.03677 34.4168 4.40857 34.4404 5.01644C34.464 5.62431 34.7473 6.00202 35.1604 5.98431C35.5735 5.96661 35.8214 5.56529 35.7919 4.95743H35.7978Z" fill="white"/>
<path d="M37.0429 3.44092L38.9668 3.52354L38.9432 4.1019L37.7098 4.04879L37.6803 4.75698L38.7367 4.8042L38.713 5.38256L37.6567 5.33534L37.6094 6.52157L36.9189 6.49207L37.0488 3.44682L37.0429 3.44092Z" fill="white"/>
<path d="M39.9524 5.15816C40.0999 4.15489 40.8495 3.67685 41.6108 3.78898C42.0003 3.848 42.2894 4.07816 42.4606 4.31423L42.0357 4.69784C41.9058 4.53259 41.7583 4.40866 41.5399 4.37915C41.1268 4.32013 40.7491 4.63292 40.6547 5.24079C40.5603 5.86046 40.7963 6.26177 41.239 6.32669C41.4868 6.3621 41.6993 6.26767 41.8704 6.13193L42.1655 6.61587C41.8704 6.86964 41.5163 6.96997 41.1268 6.91685C40.3596 6.80472 39.799 6.17915 39.9524 5.16407V5.15816Z" fill="white"/>
<path d="M42.3722 5.47678C42.6023 4.50891 43.281 4.08399 44.0777 4.27285C44.8804 4.4617 45.2935 5.15219 45.0633 6.11416C44.8332 7.08203 44.1486 7.53645 43.3518 7.3417C42.5551 7.15285 42.142 6.43875 42.3722 5.47088V5.47678ZM44.3787 5.95481C44.5204 5.35875 44.3492 4.95154 43.942 4.85121C43.5348 4.75088 43.1984 5.04596 43.0568 5.64203C42.9151 6.23809 43.0804 6.67481 43.4876 6.76924C43.8948 6.86367 44.2371 6.55088 44.3787 5.95481Z" fill="white"/>
<path d="M46.0016 4.83936L47.0403 5.19345C47.6541 5.40001 48.079 5.78362 47.8488 6.46821C47.6246 7.12919 47.0226 7.24722 46.4147 7.03477L46.0311 6.90493L45.677 7.94362L45.0278 7.71936L46.0134 4.83936H46.0016ZM46.5328 6.49772C46.875 6.61575 47.1111 6.53313 47.2055 6.24985C47.3059 5.96657 47.1524 5.80722 46.8101 5.68919L46.4796 5.57706L46.2023 6.38559L46.5328 6.49772ZM46.3498 6.82231L46.9459 6.55673L47.3118 8.49837L46.58 8.2505L46.3498 6.82231Z" fill="white"/>
<path d="M48.7281 5.80127L49.7314 6.24389C50.3215 6.50356 50.7169 6.92258 50.4218 7.58947C50.1386 8.22684 49.5307 8.29176 48.9405 8.02619L48.5687 7.86094L48.1261 8.86422L47.4946 8.58684L48.7281 5.80127ZM49.1058 7.50684C49.4363 7.65438 49.6782 7.58947 49.7963 7.31799C49.9202 7.04061 49.7845 6.86947 49.4481 6.72193L49.1235 6.58029L48.7753 7.3652L49.0999 7.50684H49.1058ZM48.8933 7.80783L49.5071 7.59537L49.7018 9.56061L48.9995 9.24783L48.8992 7.80783H48.8933Z" fill="white"/>
<path d="M51.3545 7.01123L53.0246 7.93189L52.7473 8.43943L51.6791 7.84926L51.384 8.38631L52.2928 8.88795L52.0155 9.39549L51.1066 8.89385L50.7702 9.50762L51.8797 10.1155L51.6023 10.623L49.8909 9.67877L51.3604 7.01123H51.3545Z" fill="white"/>
<path d="M52.6291 9.47812C53.1898 8.63418 54.0691 8.51615 54.7124 8.94107C55.0429 9.15943 55.2023 9.48992 55.2554 9.7791L54.7065 9.94435C54.6593 9.74369 54.5767 9.56664 54.3937 9.44271C54.0455 9.21254 53.5675 9.33648 53.2311 9.84402C52.8829 10.3634 52.9301 10.8296 53.296 11.0775C53.5026 11.2132 53.7386 11.2191 53.9511 11.1719L54.016 11.7325C53.6442 11.8388 53.2783 11.7798 52.9478 11.5614C52.3045 11.1365 52.0626 10.3339 52.6291 9.47812Z" fill="white"/>
<path d="M55.9282 10.5934L55.2672 10.0741L55.6213 9.61963L57.4803 11.0773L57.1262 11.5318L56.4652 11.0124L54.9426 12.9541L54.3997 12.5291L55.9223 10.5875L55.9282 10.5934Z" fill="white"/>
<path d="M57.805 11.3784L58.3185 11.8328L56.3001 14.1168L55.7808 13.6624L57.7991 11.3784H57.805Z" fill="white"/>
<path d="M57.675 13.255C58.3831 12.5586 59.1858 12.5586 59.7641 13.1429C60.3425 13.7271 60.3248 14.5298 59.6166 15.2262C58.9084 15.9225 58.0881 15.9403 57.5097 15.356C56.9313 14.7717 56.9668 13.9514 57.675 13.255ZM59.1209 14.7304C59.5576 14.2996 59.6284 13.8629 59.3392 13.5678C59.05 13.2727 58.6074 13.3376 58.1707 13.7625C57.734 14.1875 57.6395 14.6478 57.9346 14.9429C58.2238 15.238 58.6841 15.1553 59.1209 14.7304Z" fill="white"/>
<path d="M61.098 14.6479L61.5406 15.1968L60.8619 16.7666L60.5314 17.4217L60.5432 17.4335C60.7734 17.2034 61.0685 16.8965 61.3517 16.6722L62.1898 15.9935L62.6029 16.507L60.2304 18.4191L59.7878 17.8702L60.4724 16.3004L60.8029 15.6453L60.7911 15.6335C60.5491 15.8696 60.2658 16.1706 59.9885 16.3948L59.1504 17.0735L58.7373 16.5601L61.1098 14.6479H61.098Z" fill="white"/>
<path d="M60.7144 18.4308L61.3282 18.4958C61.2928 18.779 61.34 19.0859 61.4817 19.2925C61.641 19.5285 61.8122 19.5876 61.9656 19.4813C62.1249 19.3751 62.0777 19.1981 62.0187 18.9148L61.9361 18.4899C61.8653 18.1535 61.9184 17.764 62.2843 17.5161C62.7033 17.2328 63.2876 17.3863 63.6417 17.9115C63.8364 18.2007 63.9249 18.5843 63.8541 18.9502L63.2994 18.903C63.3171 18.6492 63.2817 18.4426 63.1459 18.242C63.0161 18.0472 62.8508 17.9764 62.7033 18.0708C62.5499 18.1771 62.603 18.3777 62.662 18.661L62.7505 19.0741C62.8331 19.4695 62.7564 19.8 62.3964 20.0361C61.9774 20.3194 61.3754 20.2131 60.9741 19.6112C60.7499 19.2807 60.6436 18.8499 60.7085 18.4308H60.7144Z" fill="white"/>
</g>
<defs>
<clipPath id="clip0_66062_31241">
<rect width="72" height="72" fill="white" transform="translate(0.5)"/>
</clipPath>
</defs>
</svg>
