<svg width="18" height="18" viewBox="0 0 18 18" fill="none" xmlns="http://www.w3.org/2000/svg">
<path d="M16.1479 5.46054L7.14791 14.4605C7.09567 14.5128 7.03364 14.5543 6.96535 14.5826C6.89706 14.6109 6.82387 14.6255 6.74995 14.6255C6.67602 14.6255 6.60283 14.6109 6.53454 14.5826C6.46626 14.5543 6.40422 14.5128 6.35198 14.4605L2.41448 10.523C2.30893 10.4175 2.24963 10.2743 2.24963 10.1251C2.24963 9.9758 2.30893 9.83265 2.41448 9.7271C2.52003 9.62155 2.66318 9.56226 2.81245 9.56226C2.96171 9.56226 3.10487 9.62155 3.21042 9.7271L6.74995 13.2673L15.352 4.6646C15.4575 4.55905 15.6007 4.49976 15.7499 4.49976C15.8992 4.49976 16.0424 4.55905 16.1479 4.6646C16.2535 4.77015 16.3128 4.9133 16.3128 5.06257C16.3128 5.21184 16.2535 5.35499 16.1479 5.46054Z" fill="#1C1B1B"/>
</svg>
