<svg width="19" height="18" viewBox="0 0 19 18" fill="none" xmlns="http://www.w3.org/2000/svg">
<path d="M16.25 9C16.25 9.14918 16.1907 9.29226 16.0852 9.39775C15.9798 9.50324 15.8367 9.5625 15.6875 9.5625H10.0625V15.1875C10.0625 15.3367 10.0032 15.4798 9.89775 15.5852C9.79226 15.6907 9.64918 15.75 9.5 15.75C9.35082 15.75 9.20774 15.6907 9.10225 15.5852C8.99676 15.4798 8.9375 15.3367 8.9375 15.1875V9.5625H3.3125C3.16332 9.5625 3.02024 9.50324 2.91475 9.39775C2.80926 9.29226 2.75 9.14918 2.75 9C2.75 8.85082 2.80926 8.70774 2.91475 8.60225C3.02024 8.49676 3.16332 8.4375 3.3125 8.4375H8.9375V2.8125C8.9375 2.66332 8.99676 2.52024 9.10225 2.41475C9.20774 2.30926 9.35082 2.25 9.5 2.25C9.64918 2.25 9.79226 2.30926 9.89775 2.41475C10.0032 2.52024 10.0625 2.66332 10.0625 2.8125V8.4375H15.6875C15.8367 8.4375 15.9798 8.49676 16.0852 8.60225C16.1907 8.70774 16.25 8.85082 16.25 9Z" fill="white"/>
</svg>
