<svg width="16" height="16" viewBox="0 0 16 16" fill="none" xmlns="http://www.w3.org/2000/svg">
<path d="M13 2H11.5V1.5C11.5 1.36739 11.4473 1.24021 11.3536 1.14645C11.2598 1.05268 11.1326 1 11 1C10.8674 1 10.7402 1.05268 10.6464 1.14645C10.5527 1.24021 10.5 1.36739 10.5 1.5V2H5.5V1.5C5.5 1.36739 5.44732 1.24021 5.35355 1.14645C5.25978 1.05268 5.13261 1 5 1C4.86739 1 4.74022 1.05268 4.64645 1.14645C4.55268 1.24021 4.5 1.36739 4.5 1.5V2H3C2.73478 2 2.48043 2.10536 2.29289 2.29289C2.10536 2.48043 2 2.73478 2 3V13C2 13.2652 2.10536 13.5196 2.29289 13.7071C2.48043 13.8946 2.73478 14 3 14H13C13.2652 14 13.5196 13.8946 13.7071 13.7071C13.8946 13.5196 14 13.2652 14 13V3C14 2.73478 13.8946 2.48043 13.7071 2.29289C13.5196 2.10536 13.2652 2 13 2ZM4.5 3V3.5C4.5 3.63261 4.55268 3.75978 4.64645 3.85355C4.74022 3.94732 4.86739 4 5 4C5.13261 4 5.25978 3.94732 5.35355 3.85355C5.44732 3.75978 5.5 3.63261 5.5 3.5V3H10.5V3.5C10.5 3.63261 10.5527 3.75978 10.6464 3.85355C10.7402 3.94732 10.8674 4 11 4C11.1326 4 11.2598 3.94732 11.3536 3.85355C11.4473 3.75978 11.5 3.63261 11.5 3.5V3H13V5H3V3H4.5ZM13 13H3V6H13V13ZM6.48079 9.01921C6.48079 9.217 6.42214 9.41034 6.31225 9.57479C6.20237 9.73923 6.0462 9.86741 5.86347 9.94309C5.68074 10.0188 5.47968 10.0386 5.2857 10C5.09171 9.96142 4.91353 9.86617 4.77368 9.72632C4.63383 9.58647 4.53859 9.40829 4.5 9.2143C4.46141 9.02032 4.48122 8.81926 4.55691 8.63653C4.63259 8.4538 4.76077 8.29763 4.92522 8.18775C5.08966 8.07786 5.283 8.01921 5.48079 8.01921C5.746 8.01921 6.00036 8.12457 6.18789 8.31211C6.37543 8.49964 6.48079 8.754 6.48079 9.01921Z" fill="#1C1B1B"/>
</svg>
